<?xml version="1.0" encoding="UTF-8"?>
<svg id="_レイヤー_1" xmlns="http://www.w3.org/2000/svg" version="1.1" viewBox="0 0 146 92">
  <!-- Generator: Adobe Illustrator 29.4.0, SVG Export Plug-In . SVG Version: 2.1.0 Build 152)  -->
  <defs>
    <style>
      .st0 {
        fill: #141414;
      }
    </style>
  </defs>
  <path class="st0" d="M46.04,34.6c-2.58.34-3.22.82-4.29,4.34-.9,2.92-3.22,10.3-6.48,22.24h-2.06c-2.02-6.23-4.08-11.98-6.18-18.33h-.09c-1.93,6.14-3.82,12.37-5.58,18.33h-2.06c-2.1-7.6-4.12-14.81-6.27-22.54-.94-3.39-1.63-3.78-3.86-4.04v-1.42h11.77v1.42c-2.88.34-3.01.73-2.45,2.96,1.2,4.9,2.49,9.79,3.74,14.47h.09c1.85-6.05,3.65-12.32,5.41-18.59h1.98c2.02,6.27,4.21,12.5,6.23,18.76h.13c1.33-4.94,3.09-11.25,3.61-14.04.47-2.66.39-3.26-2.92-3.56v-1.42h9.32v1.42Z"/>
  <path class="st0" d="M66.86,46.75c0,9.06-5.41,14.56-12.49,14.56-7.47,0-12.32-6.1-12.32-14.26,0-7,4.08-14.43,12.71-14.43,6.91,0,12.11,5.62,12.11,14.13ZM48.27,46.15c0,7.3,2.23,13.48,6.78,13.48,3.26,0,5.54-4.04,5.54-11.77,0-8.33-2.32-13.57-6.4-13.57-3.65,0-5.93,5.02-5.93,11.85Z"/>
  <path class="st0" d="M90.13,61.18c-.47,0-.99,0-1.55-.04-4.94-.21-6.4-1.37-8.07-4.12-1.03-1.67-2.19-3.99-3.26-6.27-.6-1.33-1.16-1.93-2.45-1.97h-.73v6.4c0,3.52.34,3.95,3.22,4.17v1.42h-11.89v-1.42c2.96-.21,3.31-.64,3.31-4.17v-16.57c0-3.44-.3-3.69-3.13-3.99v-1.42h11.51c3.13,0,5.02.43,6.66,1.5,1.67,1.16,2.75,3.01,2.75,5.62,0,3.65-2.15,5.75-4.94,6.96.56,1.29,2.06,4.21,3.26,6.18,1.37,2.32,2.19,3.56,3.01,4.51.94,1.03,1.76,1.67,2.53,1.98l-.21,1.25ZM75.23,47.09c1.63,0,2.66-.3,3.56-1.07,1.25-1.03,1.85-2.75,1.85-5.07,0-4.51-2.45-6.14-4.64-6.14-.9,0-1.37.17-1.63.39-.21.3-.3.64-.3,1.59v10.31h1.16Z"/>
  <path class="st0" d="M110.05,53.83c-.3,1.72-1.07,5.84-1.37,6.91h-19.11v-1.42c3.26-.26,3.61-.6,3.61-4.04v-16.57c0-3.56-.3-3.86-3.22-4.12v-1.42h11.94v1.42c-2.92.26-3.22.56-3.22,4.12v16.66c0,2.06.17,2.92.94,3.31.69.3,1.72.34,2.92.34,1.72,0,3.05-.3,3.99-1.42.73-.82,1.42-2.19,2.1-4.12l1.42.34Z"/>
  <path class="st0" d="M121.21,33.18c5.07,0,8.76,1.07,11.21,3.74,1.85,2.02,3.26,5.07,3.26,8.97,0,5.28-1.8,8.93-4.64,11.34-2.83,2.45-6.74,3.52-11.55,3.52h-9.62v-1.42c3.05-.21,3.44-.6,3.44-4.21v-16.32c0-3.65-.34-3.95-3.18-4.21v-1.42h11.08ZM118.8,55.12c0,2.88.69,3.86,2.88,3.86,4.25,0,7.86-4.08,7.86-12.32,0-4.34-1.07-7.51-2.71-9.36-1.55-1.72-3.48-2.45-5.67-2.45-1.07,0-1.67.21-1.98.43-.3.26-.39.86-.39,2.19v17.65Z"/>
</svg>