<?xml version="1.0" encoding="UTF-8"?>
<svg id="_レイヤー_1" xmlns="http://www.w3.org/2000/svg" version="1.1" viewBox="0 0 146 92">
  <!-- Generator: Adobe Illustrator 29.4.0, SVG Export Plug-In . SVG Version: 2.1.0 Build 152)  -->
  <defs>
    <style>
      .st0 {
        fill: #141414;
      }
    </style>
  </defs>
  <path class="st0" d="M14.73,43.13c-.52-1.55-1.27-3.29-3.17-3.29-1.17,0-2.14.97-2.14,2.42s.87,2.19,2.79,3.29c2.39,1.3,4.09,2.67,4.09,5.14,0,2.72-2.19,4.86-5.68,4.86-.82,0-1.57-.12-2.24-.3-.65-.2-1.1-.37-1.47-.52-.22-.67-.5-2.54-.67-3.99l.85-.27c.47,1.52,1.72,4.11,3.99,4.11,1.4,0,2.29-1.02,2.29-2.52s-.95-2.39-2.72-3.42c-2.22-1.27-4.04-2.67-4.04-5.06,0-2.59,1.9-4.69,5.34-4.69,1.32,0,2.54.37,3.17.6.07.95.25,2.02.47,3.49l-.85.15Z"/>
  <path class="st0" d="M31.83,47.09c0,5.26-3.14,8.45-7.26,8.45-4.34,0-7.16-3.54-7.16-8.28,0-4.06,2.37-8.38,7.38-8.38,4.01,0,7.03,3.27,7.03,8.2ZM21.04,46.74c0,4.24,1.3,7.83,3.94,7.83,1.9,0,3.22-2.34,3.22-6.83,0-4.84-1.35-7.88-3.71-7.88-2.12,0-3.44,2.92-3.44,6.88Z"/>
  <path class="st0" d="M46.2,51.25c-.3,1.1-.8,2.84-1.17,3.69-.62.17-2.47.6-4.01.6-5.83,0-8.08-4.19-8.08-8.08,0-5.06,3.39-8.58,8.7-8.58,1.57,0,3.09.37,3.77.52.17,1.37.3,2.49.42,3.84l-.85.17c-.77-2.69-2.19-3.54-3.84-3.54-2.82,0-4.59,3.37-4.59,7.08,0,4.46,2.02,7.56,4.71,7.56,1.77,0,3.02-1.35,4.09-3.57l.85.3Z"/>
  <path class="st0" d="M46.69,55.22v-.82c1.65-.15,1.85-.37,1.85-2.37v-9.6c0-2.04-.17-2.24-1.85-2.39v-.82h6.88v.82c-1.67.15-1.84.35-1.84,2.39v9.6c0,1.97.17,2.22,1.84,2.37v.82h-6.88Z"/>
  <path class="st0" d="M62.03,55.22v-.82c1.32-.17,1.45-.47,1.05-1.7-.22-.75-.52-1.75-.82-2.57h-4.26c-.2.62-.47,1.45-.75,2.42-.37,1.32-.27,1.62,1.4,1.84v.82h-5.16v-.82c1.42-.15,1.79-.42,2.47-2.32l4.69-12.92,1.17-.27c1.47,4.31,2.82,8.58,4.34,12.87.77,2.22,1.07,2.49,2.44,2.64v.82h-6.56ZM60.18,43.45h-.08c-.65,1.85-1.15,3.62-1.75,5.41h3.49l-1.67-5.41Z"/>
  <path class="st0" d="M80.85,51.2c-.17,1-.62,3.39-.8,4.01h-11.09v-.82c1.89-.15,2.09-.35,2.09-2.34v-9.63c0-2.07-.17-2.24-1.87-2.39v-.82h6.93v.82c-1.7.15-1.87.32-1.87,2.39v9.68c0,1.2.1,1.7.55,1.92.4.17,1,.2,1.7.2,1,0,1.77-.17,2.32-.82.42-.47.82-1.27,1.22-2.39l.82.2Z"/>
  <path class="st0" d="M81.17,55.22v-.82c1.65-.15,1.84-.37,1.84-2.37v-9.6c0-2.04-.17-2.24-1.84-2.39v-.82h6.88v.82c-1.67.15-1.84.35-1.84,2.39v9.6c0,1.97.17,2.22,1.84,2.37v.82h-6.88Z"/>
  <path class="st0" d="M101.87,50.88c-.17,1.05-.6,3.44-.85,4.34h-11.82l-.22-.4c2.57-4.44,5.93-10.52,8.3-14.61h-2.47c-2.32,0-2.74.3-3.12.8-.3.42-.62,1.15-.9,2.32l-.8-.05c.1-1.7.25-3.44.27-4.69h.65c.35.57.65.62,1.32.62h8.85l.2.35c-2.74,4.79-5.41,9.5-8.18,14.49.75.1,1.37.15,2.74.15,1.67,0,3.09-.17,3.72-.8.55-.55.97-1.3,1.45-2.69l.85.17Z"/>
  <path class="st0" d="M102.39,55.22v-.82c1.65-.15,1.84-.37,1.84-2.37v-9.6c0-2.04-.17-2.24-1.84-2.39v-.82h6.88v.82c-1.67.15-1.84.35-1.84,2.39v9.6c0,1.97.17,2.22,1.84,2.37v.82h-6.88Z"/>
  <path class="st0" d="M125.6,39.98c-1.3.08-1.72.45-1.82,1.35-.1.77-.25,2.02-.25,4.19v9.95h-1.22l-8.85-12.09h-.07v5.46c0,2.07.12,3.37.2,4.11.12.95.52,1.37,2.24,1.47v.8h-5.68v-.8c1.32-.08,1.77-.5,1.89-1.45.08-.77.22-2.07.22-4.14v-5.21c0-1.65-.03-2.09-.42-2.64-.42-.6-.92-.9-1.92-1v-.77h4.26l8.13,10.67h.1v-4.36c0-2.17-.12-3.42-.22-4.19-.12-.87-.6-1.25-2.19-1.35v-.77h5.61v.77Z"/>
  <path class="st0" d="M139.34,48.31c-1.12.25-1.27.32-1.27,1.84v2.19c0,.9.03,1.67.15,2.37-1.37.35-3.14.82-4.99.82-5.14,0-8.18-3.32-8.18-8.08,0-5.66,4.09-8.58,8.7-8.58,1.72,0,3.24.4,4.09.6.07.87.2,2.14.37,3.86l-.85.17c-.75-2.67-2.22-3.67-4.01-3.67-2.54,0-4.71,2.59-4.71,7.11,0,3.89,1.65,7.58,4.79,7.58.42,0,.8-.08,1.05-.27.3-.2.42-.62.42-1.32v-2.72c0-1.52-.15-1.7-2.42-1.92v-.8h6.86v.8Z"/>
</svg>