<?xml version="1.0" encoding="UTF-8"?>
<svg id="_レイヤー_1" xmlns="http://www.w3.org/2000/svg" version="1.1" viewBox="0 0 146 92">
  <!-- Generator: Adobe Illustrator 29.4.0, SVG Export Plug-In . SVG Version: 2.1.0 Build 152)  -->
  <defs>
    <style>
      .st0 {
        fill: #141414;
      }
    </style>
  </defs>
  <path class="st0" d="M27.68,56.61c-.34,0-.71,0-1.11-.03-3.56-.15-4.61-.99-5.81-2.97-.74-1.21-1.58-2.88-2.35-4.52-.43-.96-.83-1.39-1.76-1.42h-.53v4.61c0,2.54.25,2.84,2.32,3v1.02h-8.57v-1.02c2.13-.16,2.38-.46,2.38-3v-11.94c0-2.47-.22-2.66-2.26-2.88v-1.02h8.29c2.26,0,3.62.31,4.79,1.08,1.21.84,1.98,2.17,1.98,4.05,0,2.63-1.55,4.14-3.56,5.01.4.93,1.48,3.03,2.35,4.45.99,1.67,1.58,2.57,2.17,3.25.68.74,1.27,1.21,1.83,1.42l-.15.9ZM16.95,46.46c1.18,0,1.92-.22,2.57-.77.9-.74,1.33-1.98,1.33-3.65,0-3.25-1.76-4.42-3.34-4.42-.65,0-.99.12-1.18.28-.15.22-.22.46-.22,1.14v7.42h.84Z"/>
  <path class="st0" d="M44.2,46.22c0,6.53-3.9,10.49-9,10.49-5.38,0-8.88-4.39-8.88-10.27,0-5.04,2.94-10.39,9.16-10.39,4.98,0,8.72,4.05,8.72,10.18ZM30.8,45.78c0,5.26,1.61,9.71,4.89,9.71,2.35,0,3.99-2.91,3.99-8.48,0-6-1.67-9.77-4.61-9.77-2.63,0-4.27,3.62-4.27,8.54Z"/>
  <path class="st0" d="M58.18,56.3v-1.02c2.1-.22,2.2-.31,2.2-3.06l-.03-12.12h-.12l-6,15.93h-.93l-5.51-15.53h-.15l-.28,7.92c-.09,2.57-.15,4.05-.06,4.95.12,1.42.68,1.76,2.63,1.92v1.02h-6.8v-1.02c1.61-.16,2.04-.59,2.26-1.67.15-.96.37-2.72.56-5.6l.43-6.59c.22-3.37.06-3.74-2.35-3.96v-1.02h6l5.13,13.12,5.26-13.12h5.97v1.02c-2.32.22-2.38.4-2.35,2.81l.28,11.94c.06,2.72.19,2.81,2.32,3.06v1.02h-8.44Z"/>
  <path class="st0" d="M77.94,56.3v-1.02c1.64-.22,1.79-.59,1.3-2.1-.28-.93-.65-2.17-1.02-3.19h-5.29c-.25.77-.59,1.79-.93,3-.46,1.64-.34,2.01,1.73,2.29v1.02h-6.4v-1.02c1.76-.19,2.23-.53,3.06-2.88l5.82-16.02,1.45-.34c1.83,5.35,3.5,10.64,5.38,15.96.96,2.75,1.33,3.09,3.03,3.28v1.02h-8.13ZM75.65,41.7h-.09c-.8,2.29-1.42,4.48-2.17,6.71h4.33l-2.07-6.71Z"/>
  <path class="st0" d="M106,37.4c-1.61.09-2.13.56-2.26,1.67-.12.96-.31,2.5-.31,5.2v12.34h-1.52l-10.98-15h-.09v6.77c0,2.57.16,4.18.25,5.1.15,1.17.65,1.7,2.78,1.82v.99h-7.05v-.99c1.64-.09,2.2-.62,2.35-1.79.09-.96.28-2.57.28-5.13v-6.46c0-2.04-.03-2.6-.53-3.28-.53-.74-1.14-1.11-2.38-1.24v-.96h5.29l10.08,13.24h.12v-5.41c0-2.69-.16-4.24-.28-5.2-.16-1.08-.74-1.55-2.72-1.67v-.96h6.96v.96Z"/>
  <path class="st0" d="M121.59,51.38c-.37,1.36-.99,3.53-1.45,4.58-.77.22-3.06.74-4.98.74-7.24,0-10.02-5.2-10.02-10.02,0-6.28,4.21-10.64,10.79-10.64,1.95,0,3.84.46,4.67.65.22,1.7.37,3.09.53,4.76l-1.05.22c-.96-3.34-2.72-4.39-4.76-4.39-3.5,0-5.69,4.18-5.69,8.78,0,5.54,2.51,9.37,5.85,9.37,2.2,0,3.74-1.67,5.07-4.42l1.05.37Z"/>
  <path class="st0" d="M137.46,51.47c-.19,1.18-.74,3.93-.99,4.83h-14.38v-1.02c2.29-.22,2.57-.37,2.57-2.91v-12.06c0-2.51-.28-2.66-2.23-2.85v-1.02h13.33c.03.5.19,2.66.31,4.39l-1.05.15c-.31-1.11-.62-1.95-1.08-2.47-.43-.56-1.24-.83-3.09-.83h-1.11c-.99,0-1.11.09-1.11,1.11v6.5h1.76c2.44,0,2.72-.12,3.19-2.29h1.05v6.06h-1.05c-.46-2.23-.71-2.32-3.19-2.32h-1.76v5.6c0,1.45.16,2.13.65,2.38.46.28,1.3.34,2.41.34,1.64,0,2.54-.25,3.19-.99.53-.65,1.05-1.55,1.55-2.85l1.05.25Z"/>
</svg>