<?xml version="1.0" encoding="UTF-8"?>
<svg id="_レイヤー_1" xmlns="http://www.w3.org/2000/svg" version="1.1" viewBox="0 0 146 92">
  <!-- Generator: Adobe Illustrator 29.4.0, SVG Export Plug-In . SVG Version: 2.1.0 Build 152)  -->
  <defs>
    <style>
      .st0 {
        fill: #141414;
      }
    </style>
  </defs>
  <path class="st0" d="M32.21,25.82c-2.03.28-2.62.52-3.91,3.88-1.12,2.83-4.02,10.69-6.46,17.74h-1.61c-2.13-6.36-5.1-14.74-6.43-18.37-.94-2.69-1.43-3.04-3.35-3.25v-1.15h9.57v1.15c-2.2.28-2.31.56-1.85,2.17.7,2.27,3.14,9.15,4.44,12.96h.07c1.26-3.49,3-8.56,3.98-11.98.7-2.38.63-2.83-1.92-3.14v-1.15h7.47v1.15Z"/>
  <path class="st0" d="M32.64,47.09v-1.15c2.31-.21,2.58-.52,2.58-3.32v-13.45c0-2.86-.24-3.14-2.58-3.35v-1.15h9.64v1.15c-2.34.21-2.58.49-2.58,3.35v13.45c0,2.76.24,3.11,2.58,3.32v1.15h-9.64Z"/>
  <path class="st0" d="M59.67,41.46c-.24,1.4-.87,4.75-1.12,5.62h-15.54v-1.15c2.65-.21,2.93-.49,2.93-3.28v-13.48c0-2.9-.24-3.14-2.62-3.35v-1.15h9.71v1.15c-2.38.21-2.62.45-2.62,3.35v13.55c0,1.68.14,2.38.77,2.69.56.25,1.4.28,2.38.28,1.4,0,2.48-.24,3.25-1.15.59-.66,1.15-1.78,1.71-3.35l1.15.28Z"/>
  <path class="st0" d="M76.26,41.46c-.25,1.4-.87,4.75-1.12,5.62h-15.54v-1.15c2.65-.21,2.93-.49,2.93-3.28v-13.48c0-2.9-.24-3.14-2.62-3.35v-1.15h9.71v1.15c-2.38.21-2.62.45-2.62,3.35v13.55c0,1.68.14,2.38.77,2.69.56.25,1.4.28,2.38.28,1.4,0,2.48-.24,3.25-1.15.59-.66,1.15-1.78,1.71-3.35l1.15.28Z"/>
  <path class="st0" d="M88.42,47.09v-1.15c1.85-.25,2.03-.66,1.47-2.38-.31-1.05-.73-2.45-1.15-3.6h-5.97c-.28.87-.66,2.03-1.05,3.39-.52,1.85-.38,2.27,1.96,2.58v1.15h-7.23v-1.15c1.99-.21,2.51-.59,3.46-3.25l6.57-18.09,1.64-.38c2.06,6.04,3.95,12.02,6.08,18.02,1.08,3.11,1.5,3.49,3.42,3.7v1.15h-9.19ZM85.83,30.6h-.1c-.91,2.58-1.61,5.06-2.45,7.58h4.89l-2.34-7.58Z"/>
  <path class="st0" d="M114.86,37.41c-1.57.35-1.78.45-1.78,2.58v3.07c0,1.26.04,2.34.21,3.32-1.92.49-4.4,1.15-6.99,1.15-7.2,0-11.46-4.65-11.46-11.32,0-7.93,5.73-12.02,12.19-12.02,2.41,0,4.54.56,5.73.84.1,1.22.28,3,.52,5.41l-1.19.24c-1.05-3.74-3.11-5.13-5.62-5.13-3.56,0-6.6,3.63-6.6,9.95,0,5.45,2.31,10.62,6.71,10.62.59,0,1.12-.1,1.47-.38.42-.28.59-.87.59-1.85v-3.81c0-2.13-.21-2.38-3.39-2.69v-1.12h9.61v1.12Z"/>
  <path class="st0" d="M131.94,41.64c-.21,1.33-.84,4.44-1.12,5.45h-16.24v-1.15c2.58-.25,2.9-.42,2.9-3.28v-13.62c0-2.83-.31-3-2.51-3.21v-1.15h15.05c.04.56.21,3,.35,4.96l-1.19.17c-.35-1.26-.7-2.2-1.22-2.79-.49-.63-1.4-.94-3.49-.94h-1.26c-1.12,0-1.26.1-1.26,1.26v7.33h1.99c2.76,0,3.07-.14,3.6-2.58h1.19v6.85h-1.19c-.52-2.51-.8-2.62-3.6-2.62h-1.99v6.32c0,1.64.17,2.41.73,2.69.52.31,1.47.38,2.72.38,1.85,0,2.86-.28,3.6-1.12.59-.73,1.19-1.75,1.75-3.21l1.19.28Z"/>
  <path class="st0" d="M138.04,36.65h-6.42l.41-2.11h6.42l-.41,2.11Z"/>
  <path class="st0" d="M22.23,59.86c3.22.43,5.47,1.95,5.47,4.79,0,2.17-1.11,3.68-2.69,4.61-1.55.93-3.8,1.33-6.19,1.33h-7.18v-1.02c2.23-.19,2.44-.46,2.44-3v-11.85c0-2.5-.19-2.78-2.29-2.97v-1.02h8.29c2.29,0,3.71.31,4.86,1.08,1.02.71,1.7,1.92,1.7,3.4,0,2.81-2.32,4.11-4.42,4.52v.12ZM18.67,59.48c2.69,0,3.84-1.14,3.84-3.74,0-2.78-1.55-3.84-3.06-3.84-.65,0-.99.16-1.18.34-.22.19-.31.65-.31,1.42v5.82h.71ZM17.96,66.57c0,2.13.5,2.78,1.98,2.78,1.61-.03,3.4-1.27,3.4-4.42,0-2.85-1.67-4.27-4.76-4.27h-.62v5.91Z"/>
  <path class="st0" d="M46.11,51.75c-1.58.06-2.2.62-2.32,1.64-.15,1.02-.25,2.07-.25,4.55v3.31c0,3.06-.4,5.72-1.95,7.52-1.27,1.42-3.19,2.23-5.23,2.23-1.82,0-3.65-.4-4.98-1.58-1.55-1.36-2.2-3.4-2.2-6.99v-7.58c0-2.66-.22-2.91-2.26-3.09v-1.02h8.38v1.02c-1.95.19-2.17.43-2.17,3.09v7.49c0,4.36,1.39,6.59,4.36,6.59s4.55-2.35,4.55-7.36v-3.62c0-2.44-.12-3.62-.25-4.52-.12-1.05-.71-1.58-2.75-1.67v-1.02h7.05v1.02Z"/>
  <path class="st0" d="M46.48,70.59v-1.02c2.04-.19,2.29-.46,2.29-2.94v-11.91c0-2.54-.22-2.78-2.29-2.97v-1.02h8.54v1.02c-2.07.19-2.29.43-2.29,2.97v11.91c0,2.44.22,2.75,2.29,2.94v1.02h-8.54Z"/>
  <path class="st0" d="M70.73,65.61c-.22,1.24-.77,4.21-.99,4.98h-13.76v-1.02c2.35-.19,2.6-.43,2.6-2.91v-11.94c0-2.57-.22-2.78-2.32-2.97v-1.02h8.6v1.02c-2.1.19-2.32.4-2.32,2.97v12c0,1.48.12,2.1.68,2.38.5.22,1.24.25,2.1.25,1.24,0,2.2-.22,2.88-1.02.53-.59,1.02-1.58,1.52-2.97l1.02.25Z"/>
  <path class="st0" d="M78.8,50.73c3.65,0,6.31.77,8.07,2.69,1.33,1.45,2.35,3.65,2.35,6.46,0,3.8-1.3,6.43-3.34,8.17-2.04,1.76-4.86,2.54-8.32,2.54h-6.93v-1.02c2.2-.16,2.47-.43,2.47-3.03v-11.75c0-2.63-.25-2.85-2.29-3.03v-1.02h7.98ZM77.07,66.54c0,2.07.49,2.78,2.07,2.78,3.06,0,5.66-2.94,5.66-8.88,0-3.12-.77-5.41-1.95-6.74-1.11-1.24-2.5-1.76-4.08-1.76-.77,0-1.21.15-1.42.31-.22.19-.28.62-.28,1.58v12.71Z"/>
  <path class="st0" d="M88.3,70.59v-1.02c2.04-.19,2.29-.46,2.29-2.94v-11.91c0-2.54-.22-2.78-2.29-2.97v-1.02h8.54v1.02c-2.07.19-2.29.43-2.29,2.97v11.91c0,2.44.22,2.75,2.29,2.94v1.02h-8.54Z"/>
  <path class="st0" d="M117.1,51.69c-1.61.09-2.13.56-2.26,1.67-.12.96-.31,2.5-.31,5.2v12.34h-1.52l-10.98-15h-.09v6.77c0,2.57.16,4.18.25,5.1.15,1.17.65,1.7,2.78,1.82v.99h-7.05v-.99c1.64-.09,2.2-.62,2.35-1.79.09-.96.28-2.57.28-5.13v-6.46c0-2.04-.03-2.6-.53-3.28-.53-.74-1.14-1.11-2.38-1.24v-.96h5.29l10.08,13.24h.12v-5.41c0-2.69-.16-4.24-.28-5.2-.16-1.08-.74-1.55-2.72-1.67v-.96h6.96v.96Z"/>
  <path class="st0" d="M134.14,62.02c-1.39.31-1.58.4-1.58,2.29v2.72c0,1.11.03,2.07.19,2.94-1.7.43-3.9,1.02-6.19,1.02-6.37,0-10.14-4.11-10.14-10.02,0-7.02,5.07-10.64,10.79-10.64,2.13,0,4.02.5,5.07.74.09,1.08.25,2.66.46,4.79l-1.05.22c-.93-3.31-2.75-4.55-4.98-4.55-3.15,0-5.85,3.22-5.85,8.82,0,4.82,2.04,9.4,5.94,9.4.53,0,.99-.09,1.3-.34.37-.25.53-.77.53-1.64v-3.37c0-1.89-.19-2.1-3-2.38v-.99h8.51v.99Z"/>
</svg>