<?xml version="1.0" encoding="UTF-8"?>
<svg id="_レイヤー_1" xmlns="http://www.w3.org/2000/svg" version="1.1" viewBox="0 0 146 92">
  <!-- Generator: Adobe Illustrator 29.4.0, SVG Export Plug-In . SVG Version: 2.1.0 Build 152)  -->
  <defs>
    <style>
      .st0 {
        fill: #141414;
      }
    </style>
  </defs>
  <path class="st0" d="M32.79,26.15c-2.03.28-2.62.52-3.91,3.88-1.12,2.83-4.02,10.69-6.46,17.74h-1.61c-2.13-6.36-5.1-14.74-6.43-18.37-.94-2.69-1.43-3.04-3.35-3.25v-1.15h9.57v1.15c-2.2.28-2.31.56-1.85,2.17.7,2.27,3.14,9.15,4.44,12.96h.07c1.26-3.49,3-8.56,3.98-11.98.7-2.38.63-2.83-1.92-3.14v-1.15h7.47v1.15Z"/>
  <path class="st0" d="M33.56,47.42v-1.15c2.31-.21,2.58-.52,2.58-3.32v-13.45c0-2.86-.24-3.14-2.58-3.35v-1.15h9.64v1.15c-2.34.21-2.58.49-2.58,3.35v13.45c0,2.76.24,3.11,2.58,3.32v1.15h-9.64Z"/>
  <path class="st0" d="M60.77,41.79c-.24,1.4-.87,4.75-1.12,5.62h-15.54v-1.15c2.65-.21,2.93-.49,2.93-3.28v-13.48c0-2.9-.24-3.14-2.62-3.35v-1.15h9.71v1.15c-2.38.21-2.62.45-2.62,3.35v13.55c0,1.68.14,2.38.77,2.69.56.25,1.4.28,2.38.28,1.4,0,2.48-.24,3.25-1.15.59-.66,1.15-1.78,1.71-3.35l1.15.28Z"/>
  <path class="st0" d="M77.54,41.79c-.25,1.4-.87,4.75-1.12,5.62h-15.54v-1.15c2.65-.21,2.93-.49,2.93-3.28v-13.48c0-2.9-.24-3.14-2.62-3.35v-1.15h9.71v1.15c-2.37.21-2.62.45-2.62,3.35v13.55c0,1.68.14,2.38.77,2.69.56.25,1.4.28,2.38.28,1.4,0,2.48-.24,3.25-1.15.59-.66,1.15-1.78,1.71-3.35l1.15.28Z"/>
  <path class="st0" d="M89.7,47.42v-1.15c1.85-.25,2.03-.66,1.47-2.38-.31-1.05-.73-2.45-1.15-3.6h-5.97c-.28.87-.66,2.03-1.05,3.39-.52,1.85-.38,2.27,1.96,2.58v1.15h-7.23v-1.15c1.99-.21,2.51-.59,3.46-3.25l6.57-18.09,1.64-.38c2.06,6.04,3.95,12.02,6.08,18.02,1.08,3.11,1.5,3.49,3.42,3.7v1.15h-9.19ZM87.11,30.93h-.1c-.91,2.58-1.61,5.06-2.45,7.58h4.89l-2.34-7.58Z"/>
  <path class="st0" d="M116.31,37.74c-1.57.35-1.78.45-1.78,2.58v3.07c0,1.26.04,2.34.21,3.32-1.92.49-4.4,1.15-6.99,1.15-7.19,0-11.46-4.65-11.46-11.32,0-7.93,5.73-12.02,12.19-12.02,2.41,0,4.54.56,5.73.84.1,1.22.28,3,.52,5.41l-1.19.24c-1.05-3.74-3.11-5.13-5.62-5.13-3.56,0-6.6,3.63-6.6,9.95,0,5.45,2.31,10.62,6.71,10.62.59,0,1.12-.1,1.47-.38.42-.28.59-.87.59-1.85v-3.81c0-2.13-.21-2.38-3.39-2.69v-1.12h9.61v1.12Z"/>
  <path class="st0" d="M133.57,41.97c-.21,1.33-.84,4.44-1.12,5.45h-16.24v-1.15c2.58-.25,2.9-.42,2.9-3.28v-13.62c0-2.83-.31-3-2.51-3.21v-1.15h15.05c.04.56.21,3,.35,4.96l-1.19.17c-.35-1.26-.7-2.2-1.22-2.79-.49-.63-1.4-.94-3.49-.94h-1.26c-1.12,0-1.26.1-1.26,1.26v7.33h1.99c2.76,0,3.07-.14,3.6-2.58h1.19v6.85h-1.19c-.52-2.51-.8-2.62-3.6-2.62h-1.99v6.32c0,1.64.17,2.41.73,2.69.52.31,1.47.38,2.72.38,1.85,0,2.86-.28,3.6-1.12.59-.73,1.19-1.75,1.75-3.21l1.19.28Z"/>
  <path class="st0" d="M24.7,55.61c-.28-.98-.53-1.71-.98-2.27-.5-.62-1.29-.78-2.74-.78h-1.23c-.87,0-1.01.08-1.01.98v6.19h2.16c2.21,0,2.46-.2,2.8-2.02h.92v5.43h-.92c-.34-1.93-.59-2.13-2.8-2.13h-2.16v4.68c0,2.38.2,2.63,2.32,2.8v.92h-7.92v-.92c1.76-.17,2.02-.39,2.02-2.77v-10.64c0-2.35-.25-2.58-2.02-2.74v-.9h12.21c.03.45.14,2.44.28,4.03l-.92.14Z"/>
  <path class="st0" d="M32.49,69.42v-.92c1.48-.2,1.62-.53,1.18-1.9-.25-.84-.59-1.96-.92-2.88h-4.79c-.22.7-.53,1.62-.84,2.72-.42,1.48-.31,1.82,1.57,2.07v.92h-5.8v-.92c1.6-.17,2.02-.48,2.77-2.6l5.26-14.5,1.32-.31c1.65,4.84,3.16,9.63,4.87,14.45.87,2.49,1.2,2.8,2.74,2.97v.92h-7.36ZM30.42,56.2h-.08c-.73,2.07-1.29,4.06-1.96,6.08h3.92l-1.88-6.08Z"/>
  <path class="st0" d="M53.07,64.97c-.34,1.23-.9,3.19-1.32,4.14-.7.2-2.77.67-4.51.67-6.55,0-9.07-4.7-9.07-9.07,0-5.68,3.81-9.63,9.77-9.63,1.76,0,3.47.42,4.23.59.2,1.54.34,2.8.48,4.31l-.95.2c-.87-3.02-2.46-3.98-4.31-3.98-3.16,0-5.15,3.78-5.15,7.95,0,5.01,2.27,8.48,5.29,8.48,1.99,0,3.39-1.51,4.59-4l.95.34Z"/>
  <path class="st0" d="M53.63,69.42v-.92c1.85-.17,2.07-.42,2.07-2.66v-10.78c0-2.3-.2-2.52-2.07-2.69v-.92h7.73v.92c-1.88.17-2.07.39-2.07,2.69v10.78c0,2.21.2,2.49,2.07,2.66v.92h-7.73Z"/>
  <path class="st0" d="M75.58,64.91c-.2,1.12-.7,3.81-.9,4.51h-12.46v-.92c2.13-.17,2.35-.39,2.35-2.63v-10.81c0-2.32-.2-2.52-2.1-2.69v-.92h7.78v.92c-1.9.17-2.1.36-2.1,2.69v10.86c0,1.34.11,1.9.62,2.16.45.2,1.12.22,1.9.22,1.12,0,1.99-.2,2.6-.92.48-.53.92-1.43,1.37-2.69l.92.22Z"/>
  <path class="st0" d="M75.66,69.42v-.92c1.85-.17,2.07-.42,2.07-2.66v-10.78c0-2.3-.2-2.52-2.07-2.69v-.92h7.73v.92c-1.88.17-2.07.39-2.07,2.69v10.78c0,2.21.2,2.49,2.07,2.66v.92h-7.73Z"/>
  <path class="st0" d="M97.78,55.89c-.34-1.4-.62-2.24-1.04-2.72-.45-.48-1.15-.62-2.27-.62h-1.26v13.24c0,2.3.22,2.52,2.41,2.69v.92h-8.29v-.92c2.1-.17,2.32-.39,2.32-2.69v-13.24h-1.01c-1.54,0-2.13.2-2.55.73-.39.48-.67,1.4-.98,2.63h-.95c.11-1.85.28-3.78.31-5.18h.67c.42.56.73.7,1.48.7h9.69c.64,0,1.01-.17,1.43-.7h.67c.03,1.15.17,3.39.28,5.1l-.92.06Z"/>
  <path class="st0" d="M99.58,69.42v-.92c1.85-.17,2.07-.42,2.07-2.66v-10.78c0-2.3-.2-2.52-2.07-2.69v-.92h7.73v.92c-1.88.17-2.07.39-2.07,2.69v10.78c0,2.21.2,2.49,2.07,2.66v.92h-7.73Z"/>
  <path class="st0" d="M122.25,65.05c-.17,1.06-.67,3.56-.9,4.37h-13.02v-.92c2.07-.2,2.32-.34,2.32-2.63v-10.92c0-2.27-.25-2.41-2.02-2.58v-.92h12.07c.03.45.17,2.41.28,3.98l-.95.14c-.28-1.01-.56-1.76-.98-2.24-.39-.5-1.12-.76-2.8-.76h-1.01c-.9,0-1.01.08-1.01,1.01v5.88h1.6c2.21,0,2.46-.11,2.88-2.07h.95v5.49h-.95c-.42-2.02-.64-2.1-2.88-2.1h-1.6v5.07c0,1.32.14,1.93.59,2.16.42.25,1.18.31,2.18.31,1.48,0,2.3-.22,2.88-.9.48-.59.95-1.4,1.4-2.58l.95.22Z"/>
  <path class="st0" d="M132.39,55.84c-.59-1.74-1.43-3.7-3.56-3.7-1.32,0-2.41,1.09-2.41,2.72s.98,2.46,3.14,3.7c2.69,1.46,4.59,3,4.59,5.77,0,3.05-2.46,5.46-6.38,5.46-.92,0-1.76-.14-2.52-.34-.73-.22-1.23-.42-1.65-.59-.25-.76-.56-2.86-.76-4.48l.95-.31c.53,1.71,1.93,4.62,4.48,4.62,1.57,0,2.58-1.15,2.58-2.83s-1.06-2.69-3.05-3.84c-2.49-1.43-4.54-3-4.54-5.68,0-2.91,2.13-5.26,5.99-5.26,1.48,0,2.86.42,3.56.67.08,1.06.28,2.27.53,3.92l-.95.17Z"/>
</svg>