<?xml version="1.0" encoding="UTF-8"?>
<svg id="_レイヤー_1" xmlns="http://www.w3.org/2000/svg" version="1.1" viewBox="0 0 146 92">
  <!-- Generator: Adobe Illustrator 29.4.0, SVG Export Plug-In . SVG Version: 2.1.0 Build 152)  -->
  <defs>
    <style>
      .st0 {
        fill: #141414;
      }
    </style>
  </defs>
  <path class="st0" d="M24.58,51.15c-.37,1.36-.99,3.53-1.45,4.58-.77.22-3.06.74-4.98.74-7.24,0-10.02-5.2-10.02-10.02,0-6.28,4.21-10.64,10.79-10.64,1.95,0,3.83.46,4.67.65.22,1.7.37,3.09.53,4.76l-1.05.22c-.96-3.34-2.72-4.39-4.76-4.39-3.5,0-5.69,4.18-5.69,8.78,0,5.54,2.5,9.37,5.85,9.37,2.2,0,3.74-1.67,5.07-4.42l1.05.37Z"/>
  <path class="st0" d="M42.67,45.98c0,6.53-3.9,10.49-9,10.49-5.38,0-8.88-4.39-8.88-10.27,0-5.04,2.94-10.39,9.16-10.39,4.98,0,8.72,4.05,8.72,10.18ZM29.28,45.55c0,5.26,1.61,9.71,4.89,9.71,2.35,0,3.99-2.91,3.99-8.48,0-6-1.67-9.77-4.61-9.77-2.63,0-4.27,3.62-4.27,8.54Z"/>
  <path class="st0" d="M60.7,37.17c-1.61.09-2.13.56-2.26,1.67-.12.96-.31,2.5-.31,5.2v12.34h-1.52l-10.98-15h-.09v6.77c0,2.57.15,4.18.25,5.1.15,1.17.65,1.7,2.78,1.82v.99h-7.05v-.99c1.64-.09,2.2-.62,2.35-1.79.09-.96.28-2.57.28-5.13v-6.46c0-2.04-.03-2.6-.53-3.28-.53-.74-1.14-1.11-2.38-1.24v-.96h5.29l10.08,13.24h.12v-5.41c0-2.69-.15-4.24-.28-5.2-.15-1.08-.74-1.55-2.72-1.67v-.96h6.96v.96Z"/>
  <path class="st0" d="M76.02,41.13c-.37-1.55-.68-2.47-1.14-3-.5-.53-1.27-.68-2.51-.68h-1.39v14.63c0,2.54.25,2.78,2.66,2.97v1.02h-9.16v-1.02c2.32-.19,2.57-.43,2.57-2.97v-14.63h-1.11c-1.7,0-2.35.22-2.81.8-.43.53-.74,1.55-1.08,2.91h-1.05c.12-2.04.31-4.18.34-5.72h.74c.46.62.8.77,1.64.77h10.7c.71,0,1.11-.19,1.58-.77h.74c.03,1.27.19,3.74.31,5.63l-1.02.06Z"/>
  <path class="st0" d="M95.22,56.38c-.34,0-.71,0-1.11-.03-3.56-.15-4.61-.99-5.81-2.97-.74-1.21-1.58-2.88-2.35-4.52-.43-.96-.83-1.39-1.76-1.42h-.53v4.61c0,2.54.25,2.84,2.32,3v1.02h-8.57v-1.02c2.13-.16,2.38-.46,2.38-3v-11.94c0-2.47-.22-2.66-2.26-2.88v-1.02h8.29c2.26,0,3.62.31,4.79,1.08,1.21.84,1.98,2.17,1.98,4.05,0,2.63-1.55,4.14-3.56,5.01.4.93,1.48,3.03,2.35,4.45.99,1.67,1.58,2.57,2.17,3.25.68.74,1.27,1.21,1.83,1.42l-.16.9ZM84.49,46.23c1.18,0,1.92-.22,2.57-.77.9-.74,1.33-1.98,1.33-3.65,0-3.25-1.76-4.42-3.34-4.42-.65,0-.99.12-1.17.28-.15.22-.22.46-.22,1.14v7.42h.83Z"/>
  <path class="st0" d="M111.56,45.98c0,6.53-3.9,10.49-9,10.49-5.38,0-8.88-4.39-8.88-10.27,0-5.04,2.94-10.39,9.15-10.39,4.98,0,8.72,4.05,8.72,10.18ZM98.16,45.55c0,5.26,1.61,9.71,4.89,9.71,2.35,0,3.99-2.91,3.99-8.48,0-6-1.67-9.77-4.61-9.77-2.63,0-4.27,3.62-4.27,8.54Z"/>
  <path class="st0" d="M125.51,51.09c-.22,1.24-.77,4.21-.99,4.98h-13.76v-1.02c2.35-.19,2.6-.43,2.6-2.91v-11.94c0-2.57-.22-2.78-2.32-2.97v-1.02h8.6v1.02c-2.1.19-2.32.4-2.32,2.97v12c0,1.48.12,2.1.68,2.38.5.22,1.24.25,2.1.25,1.24,0,2.2-.22,2.88-1.02.53-.59,1.02-1.58,1.52-2.97l1.02.25Z"/>
  <path class="st0" d="M136.15,41.06c-.65-1.92-1.58-4.08-3.93-4.08-1.45,0-2.66,1.21-2.66,3s1.08,2.72,3.46,4.08c2.97,1.61,5.07,3.31,5.07,6.37,0,3.37-2.72,6.03-7.05,6.03-1.02,0-1.95-.16-2.78-.37-.8-.25-1.36-.46-1.83-.65-.28-.84-.62-3.16-.83-4.95l1.05-.34c.59,1.89,2.13,5.1,4.95,5.1,1.73,0,2.84-1.27,2.84-3.12s-1.17-2.97-3.37-4.24c-2.75-1.58-5.01-3.31-5.01-6.28,0-3.22,2.35-5.81,6.62-5.81,1.64,0,3.16.46,3.93.74.09,1.18.31,2.51.59,4.33l-1.05.19Z"/>
</svg>