<?xml version="1.0" encoding="UTF-8"?>
<svg id="_レイヤー_1" xmlns="http://www.w3.org/2000/svg" version="1.1" viewBox="0 0 146 92">
  <!-- Generator: Adobe Illustrator 29.4.0, SVG Export Plug-In . SVG Version: 2.1.0 Build 152)  -->
  <defs>
    <style>
      .st0 {
        fill: #141414;
      }
    </style>
  </defs>
  <path class="st0" d="M27.7,37.67c0,4.73-2.83,7.6-6.53,7.6-3.9,0-6.44-3.19-6.44-7.45,0-3.66,2.13-7.54,6.64-7.54,3.61,0,6.33,2.94,6.33,7.38ZM17.98,37.35c0,3.81,1.17,7.04,3.54,7.04,1.7,0,2.89-2.11,2.89-6.15,0-4.35-1.21-7.09-3.34-7.09-1.91,0-3.1,2.62-3.1,6.19Z"/>
  <path class="st0" d="M40.73,31.32c-1.3.18-1.68.34-2.51,2.49-.72,1.82-2.58,6.86-4.15,11.39h-1.03c-1.37-4.08-3.27-9.47-4.13-11.8-.61-1.73-.92-1.95-2.15-2.09v-.74h6.15v.74c-1.41.18-1.48.36-1.19,1.39.45,1.46,2.02,5.88,2.85,8.32h.04c.81-2.24,1.93-5.5,2.56-7.69.45-1.52.4-1.82-1.23-2.02v-.74h4.8v.74Z"/>
  <path class="st0" d="M51.58,41.48c-.13.85-.54,2.85-.72,3.5h-10.43v-.74c1.66-.16,1.86-.27,1.86-2.11v-8.75c0-1.82-.2-1.93-1.61-2.06v-.74h9.67c.02.36.13,1.93.22,3.19l-.76.11c-.22-.81-.45-1.41-.79-1.79-.31-.4-.9-.61-2.24-.61h-.81c-.72,0-.81.07-.81.81v4.71h1.28c1.77,0,1.97-.09,2.31-1.66h.76v4.4h-.76c-.34-1.62-.52-1.68-2.31-1.68h-1.28v4.06c0,1.05.11,1.55.47,1.73.34.2.94.25,1.75.25,1.19,0,1.84-.18,2.31-.72.38-.47.76-1.12,1.12-2.06l.76.18Z"/>
  <path class="st0" d="M64.85,45.2c-.25,0-.52,0-.81-.02-2.58-.11-3.34-.72-4.22-2.15-.54-.87-1.14-2.09-1.7-3.27-.31-.7-.61-1.01-1.28-1.03h-.38v3.34c0,1.84.18,2.06,1.68,2.18v.74h-6.21v-.74c1.55-.11,1.73-.34,1.73-2.18v-8.66c0-1.79-.16-1.93-1.64-2.09v-.74h6.01c1.64,0,2.62.22,3.48.79.88.61,1.44,1.57,1.44,2.94,0,1.91-1.12,3.01-2.58,3.63.29.67,1.08,2.2,1.7,3.23.72,1.21,1.14,1.86,1.57,2.35.49.54.92.88,1.32,1.03l-.11.65ZM57.07,37.85c.85,0,1.39-.16,1.86-.56.65-.54.96-1.44.96-2.65,0-2.36-1.28-3.21-2.42-3.21-.47,0-.72.09-.85.2-.11.16-.16.34-.16.83v5.38h.61Z"/>
  <path class="st0" d="M82.46,31.32c-1.35.18-1.68.43-2.24,2.27-.47,1.53-1.68,5.38-3.39,11.62h-1.08c-1.05-3.25-2.13-6.26-3.23-9.58h-.04c-1.01,3.21-2,6.46-2.92,9.58h-1.08c-1.1-3.97-2.15-7.74-3.27-11.78-.49-1.77-.85-1.97-2.02-2.11v-.74h6.15v.74c-1.5.18-1.57.38-1.28,1.55.63,2.56,1.3,5.11,1.95,7.56h.04c.96-3.16,1.91-6.44,2.83-9.71h1.03c1.05,3.27,2.2,6.53,3.25,9.8h.07c.7-2.58,1.62-5.88,1.88-7.33.25-1.39.2-1.7-1.53-1.86v-.74h4.87v.74Z"/>
  <path class="st0" d="M93.9,37.67c0,4.73-2.83,7.6-6.53,7.6-3.9,0-6.44-3.19-6.44-7.45,0-3.66,2.13-7.54,6.64-7.54,3.61,0,6.33,2.94,6.33,7.38ZM84.18,37.35c0,3.81,1.17,7.04,3.54,7.04,1.71,0,2.89-2.11,2.89-6.15,0-4.35-1.21-7.09-3.34-7.09-1.91,0-3.1,2.62-3.1,6.19Z"/>
  <path class="st0" d="M106.72,45.2c-.25,0-.52,0-.81-.02-2.58-.11-3.34-.72-4.22-2.15-.54-.87-1.14-2.09-1.71-3.27-.31-.7-.61-1.01-1.28-1.03h-.38v3.34c0,1.84.18,2.06,1.68,2.18v.74h-6.21v-.74c1.55-.11,1.73-.34,1.73-2.18v-8.66c0-1.79-.16-1.93-1.64-2.09v-.74h6.01c1.64,0,2.62.22,3.48.79.87.61,1.44,1.57,1.44,2.94,0,1.91-1.12,3.01-2.58,3.63.29.67,1.08,2.2,1.71,3.23.72,1.21,1.14,1.86,1.57,2.35.49.54.92.88,1.32,1.03l-.11.65ZM98.94,37.85c.85,0,1.39-.16,1.86-.56.65-.54.96-1.44.96-2.65,0-2.36-1.28-3.21-2.42-3.21-.47,0-.72.09-.85.2-.11.16-.16.34-.16.83v5.38h.61Z"/>
  <path class="st0" d="M117.69,41.37c-.16.9-.56,3.05-.72,3.61h-9.98v-.74c1.71-.13,1.88-.31,1.88-2.11v-8.66c0-1.86-.16-2.02-1.68-2.15v-.74h6.24v.74c-1.53.13-1.68.29-1.68,2.15v8.7c0,1.08.09,1.53.49,1.73.36.16.9.18,1.53.18.9,0,1.59-.16,2.09-.74.38-.43.74-1.14,1.1-2.15l.74.18Z"/>
  <path class="st0" d="M123.74,30.58c2.65,0,4.58.56,5.85,1.95.96,1.05,1.7,2.65,1.7,4.69,0,2.76-.94,4.67-2.42,5.92-1.48,1.28-3.52,1.84-6.03,1.84h-5.02v-.74c1.59-.11,1.79-.31,1.79-2.2v-8.52c0-1.91-.18-2.06-1.66-2.2v-.74h5.79ZM122.49,42.04c0,1.5.36,2.02,1.5,2.02,2.22,0,4.1-2.13,4.1-6.44,0-2.27-.56-3.93-1.41-4.89-.81-.9-1.82-1.28-2.96-1.28-.56,0-.88.11-1.03.22-.16.13-.2.45-.2,1.14v9.22Z"/>
  <path class="st0" d="M26.31,62.03v-.74c1.52-.16,1.59-.22,1.59-2.22l-.02-8.79h-.09l-4.35,11.55h-.67l-3.99-11.26h-.11l-.2,5.74c-.07,1.86-.11,2.94-.04,3.59.09,1.03.49,1.28,1.91,1.39v.74h-4.93v-.74c1.17-.11,1.48-.43,1.64-1.21.11-.7.27-1.97.4-4.06l.31-4.78c.16-2.45.04-2.71-1.7-2.87v-.74h4.35l3.72,9.51,3.81-9.51h4.33v.74c-1.68.16-1.73.29-1.7,2.04l.2,8.66c.04,1.97.13,2.04,1.68,2.22v.74h-6.12Z"/>
  <path class="st0" d="M44.47,58.53c-.13.85-.54,2.85-.72,3.5h-10.43v-.74c1.66-.16,1.86-.27,1.86-2.11v-8.75c0-1.82-.2-1.93-1.61-2.06v-.74h9.67c.02.36.13,1.93.22,3.18l-.76.11c-.22-.81-.45-1.41-.79-1.79-.31-.4-.9-.61-2.24-.61h-.81c-.72,0-.81.07-.81.81v4.71h1.28c1.77,0,1.97-.09,2.31-1.66h.76v4.4h-.76c-.34-1.62-.52-1.68-2.31-1.68h-1.28v4.06c0,1.05.11,1.55.47,1.73.34.2.94.25,1.75.25,1.19,0,1.84-.18,2.31-.72.38-.47.76-1.12,1.12-2.06l.76.18Z"/>
  <path class="st0" d="M57.21,58.46c-.27.99-.72,2.56-1.05,3.32-.56.16-2.22.54-3.61.54-5.25,0-7.27-3.77-7.27-7.27,0-4.55,3.05-7.72,7.83-7.72,1.41,0,2.78.34,3.39.47.16,1.23.27,2.24.38,3.45l-.76.16c-.7-2.42-1.97-3.19-3.45-3.19-2.53,0-4.13,3.03-4.13,6.37,0,4.02,1.82,6.8,4.24,6.8,1.59,0,2.71-1.21,3.68-3.21l.76.27Z"/>
  <path class="st0" d="M72.21,48.37c-1.55.13-1.73.27-1.73,2.09v8.73c0,1.79.2,1.95,1.68,2.11v.74h-6.26v-.74c1.53-.13,1.73-.31,1.73-2.09v-4.26h-5.02v4.26c0,1.82.18,1.95,1.64,2.09v.74h-6.21v-.74c1.5-.13,1.7-.29,1.7-2.09v-8.75c0-1.82-.2-1.95-1.77-2.09v-.74h6.24v.74c-1.41.13-1.59.27-1.59,2.09v3.36h5.02v-3.36c0-1.82-.2-1.95-1.64-2.09v-.74h6.21v.74Z"/>
  <path class="st0" d="M79.83,62.03v-.74c1.19-.16,1.3-.43.94-1.53-.2-.67-.47-1.57-.74-2.31h-3.84c-.18.56-.43,1.3-.67,2.18-.34,1.19-.25,1.46,1.26,1.66v.74h-4.64v-.74c1.28-.13,1.62-.38,2.22-2.09l4.22-11.62,1.05-.25c1.32,3.88,2.54,7.72,3.9,11.57.7,2,.96,2.24,2.2,2.38v.74h-5.9ZM78.17,51.44h-.07c-.58,1.66-1.03,3.25-1.57,4.87h3.14l-1.5-4.87Z"/>
  <path class="st0" d="M100.27,48.33c-1.17.07-1.55.4-1.64,1.21-.09.7-.22,1.82-.22,3.77v8.95h-1.1l-7.96-10.88h-.07v4.91c0,1.86.11,3.03.18,3.7.11.85.47,1.23,2.02,1.32v.72h-5.11v-.72c1.19-.07,1.59-.45,1.71-1.3.07-.7.2-1.86.2-3.72v-4.69c0-1.48-.02-1.88-.38-2.38-.38-.54-.83-.81-1.73-.9v-.7h3.83l7.31,9.6h.09v-3.92c0-1.95-.11-3.07-.2-3.77-.11-.79-.54-1.12-1.97-1.21v-.7h5.05v.7Z"/>
  <path class="st0" d="M101.09,62.03v-.74c1.48-.13,1.66-.34,1.66-2.13v-8.64c0-1.84-.16-2.02-1.66-2.15v-.74h6.19v.74c-1.5.13-1.66.31-1.66,2.15v8.64c0,1.77.16,2,1.66,2.13v.74h-6.19Z"/>
  <path class="st0" d="M120.38,58.46c-.27.99-.72,2.56-1.05,3.32-.56.16-2.22.54-3.61.54-5.25,0-7.27-3.77-7.27-7.27,0-4.55,3.05-7.72,7.83-7.72,1.41,0,2.78.34,3.39.47.16,1.23.27,2.24.38,3.45l-.76.16c-.7-2.42-1.97-3.19-3.45-3.19-2.54,0-4.13,3.03-4.13,6.37,0,4.02,1.82,6.8,4.24,6.8,1.59,0,2.71-1.21,3.68-3.21l.76.27Z"/>
  <path class="st0" d="M128.92,51.15c-.47-1.39-1.14-2.96-2.85-2.96-1.05,0-1.93.88-1.93,2.18s.79,1.97,2.51,2.96c2.15,1.17,3.68,2.4,3.68,4.62,0,2.45-1.97,4.38-5.11,4.38-.74,0-1.41-.11-2.02-.27-.58-.18-.99-.34-1.32-.47-.2-.61-.45-2.29-.61-3.59l.76-.25c.43,1.37,1.55,3.7,3.59,3.7,1.26,0,2.06-.92,2.06-2.27s-.85-2.15-2.45-3.07c-2-1.14-3.63-2.4-3.63-4.55,0-2.33,1.71-4.22,4.8-4.22,1.19,0,2.29.34,2.85.54.07.85.22,1.82.43,3.14l-.76.13Z"/>
</svg>