<?xml version="1.0" encoding="UTF-8"?>
<svg id="_レイヤー_1" xmlns="http://www.w3.org/2000/svg" version="1.1" viewBox="0 0 146 92">
  <!-- Generator: Adobe Illustrator 29.4.0, SVG Export Plug-In . SVG Version: 2.1.0 Build 152)  -->
  <defs>
    <style>
      .st0 {
        fill: #141414;
      }
    </style>
  </defs>
  <path class="st0" d="M30.36,40.14c-.99-2.91-2.39-6.2-5.96-6.2-2.21,0-4.04,1.83-4.04,4.55s1.64,4.13,5.26,6.2c4.51,2.44,7.7,5.02,7.7,9.67,0,5.12-4.13,9.15-10.7,9.15-1.55,0-2.96-.24-4.22-.56-1.22-.38-2.06-.7-2.77-.99-.42-1.27-.94-4.79-1.27-7.51l1.6-.52c.89,2.86,3.24,7.74,7.51,7.74,2.63,0,4.32-1.92,4.32-4.74s-1.78-4.51-5.12-6.43c-4.18-2.39-7.6-5.02-7.6-9.53,0-4.88,3.57-8.82,10.04-8.82,2.49,0,4.79.7,5.96,1.13.14,1.78.47,3.8.89,6.57l-1.6.28Z"/>
  <path class="st0" d="M55.89,40.24c-.56-2.35-1.03-3.75-1.74-4.55-.75-.8-1.92-1.03-3.8-1.03h-2.11v22.2c0,3.85.38,4.22,4.04,4.51v1.55h-13.89v-1.55c3.52-.28,3.9-.66,3.9-4.51v-22.2h-1.69c-2.58,0-3.57.33-4.27,1.22-.66.8-1.13,2.35-1.64,4.41h-1.6c.19-3.1.47-6.34.52-8.68h1.13c.7.94,1.22,1.17,2.49,1.17h16.24c1.08,0,1.69-.28,2.39-1.17h1.13c.05,1.92.28,5.68.47,8.54l-1.55.09Z"/>
  <path class="st0" d="M84.52,47.6c0,9.9-5.91,15.91-13.66,15.91-8.17,0-13.47-6.67-13.47-15.58,0-7.65,4.46-15.77,13.89-15.77,7.56,0,13.24,6.15,13.24,15.44ZM64.19,46.95c0,7.98,2.44,14.74,7.42,14.74,3.57,0,6.05-4.41,6.05-12.86,0-9.11-2.53-14.83-6.99-14.83-3.99,0-6.48,5.49-6.48,12.95Z"/>
  <path class="st0" d="M110.19,63.38c-.52,0-1.08,0-1.69-.05-5.4-.24-6.99-1.5-8.82-4.51-1.13-1.83-2.39-4.37-3.57-6.85-.66-1.45-1.27-2.11-2.67-2.16h-.8v6.99c0,3.85.38,4.32,3.52,4.55v1.55h-13v-1.55c3.24-.23,3.61-.7,3.61-4.55v-18.12c0-3.75-.33-4.04-3.43-4.37v-1.55h12.58c3.43,0,5.49.47,7.28,1.64,1.83,1.27,3,3.29,3,6.15,0,3.99-2.35,6.29-5.4,7.6.61,1.41,2.25,4.6,3.57,6.76,1.5,2.54,2.39,3.9,3.29,4.93,1.03,1.13,1.92,1.83,2.77,2.16l-.23,1.36ZM93.9,47.98c1.78,0,2.91-.33,3.9-1.17,1.36-1.13,2.02-3,2.02-5.54,0-4.93-2.67-6.71-5.07-6.71-.99,0-1.5.19-1.78.42-.23.33-.33.7-.33,1.74v11.26h1.27Z"/>
  <path class="st0" d="M132.9,34.32c-2.63.28-3.38.8-4.98,3.71-1.64,2.96-2.77,4.98-4.83,9.53-.52,1.17-.7,1.55-.7,3.15v6.01c0,3.99.33,4.32,4.08,4.65v1.55h-13.99v-1.55c3.52-.28,3.9-.66,3.9-4.65v-5.4c0-1.17-.09-1.64-.47-2.44-1.17-2.63-2.68-5.58-5.44-11.03-1.46-2.86-2.16-3.24-4.41-3.52v-1.55h12.3v1.55c-2.72.42-2.67.84-1.88,2.63,1.46,3.24,3.1,6.67,4.79,10.14,1.13-2.49,3.24-6.85,4.41-10.04.66-1.83.52-2.35-2.77-2.72v-1.55h10v1.55Z"/>
</svg>