<?xml version="1.0" encoding="UTF-8"?>
<svg id="_レイヤー_1" xmlns="http://www.w3.org/2000/svg" version="1.1" viewBox="0 0 146 92">
  <!-- Generator: Adobe Illustrator 29.4.0, SVG Export Plug-In . SVG Version: 2.1.0 Build 152)  -->
  <defs>
    <style>
      .st0 {
        fill: #141414;
      }
    </style>
  </defs>
  <path class="st0" d="M23.97,16.69c1.88,0,3.08.27,4.03.9,1.1.73,1.76,1.95,1.76,3.59,0,3.18-2.22,4.69-4.79,5.01-.34.05-.59.05-.85.05l-1.42-.39v3.44c0,2,.15,2.2,2.05,2.37v.71h-6.94v-.71c1.64-.17,1.81-.37,1.81-2.37v-9.43c0-2-.17-2.2-1.69-2.37v-.81h6.03ZM22.7,24.93c.32.12.68.22,1.15.22.71,0,2.56-.56,2.56-3.86,0-2.86-1.42-3.71-2.69-3.71-.42,0-.64.1-.78.22-.2.12-.24.39-.24.78v6.35Z"/>
  <path class="st0" d="M44.81,24.41c0,5.15-3.08,8.28-7.11,8.28-4.25,0-7.01-3.47-7.01-8.11,0-3.98,2.32-8.21,7.23-8.21,3.93,0,6.89,3.2,6.89,8.04ZM34.23,24.07c0,4.15,1.27,7.67,3.86,7.67,1.86,0,3.15-2.3,3.15-6.69,0-4.74-1.32-7.72-3.64-7.72-2.08,0-3.37,2.86-3.37,6.74Z"/>
  <path class="st0" d="M64.66,17.5c-1.47.2-1.83.46-2.44,2.47-.51,1.66-1.83,5.86-3.69,12.65h-1.17c-1.15-3.54-2.32-6.82-3.52-10.43h-.05c-1.1,3.49-2.17,7.04-3.18,10.43h-1.17c-1.2-4.32-2.35-8.43-3.57-12.83-.54-1.93-.93-2.15-2.2-2.3v-.81h6.69v.81c-1.64.2-1.71.42-1.39,1.69.68,2.79,1.42,5.57,2.13,8.23h.05c1.05-3.44,2.08-7.01,3.08-10.58h1.12c1.15,3.57,2.39,7.11,3.54,10.68h.07c.76-2.81,1.76-6.4,2.05-7.99.27-1.51.22-1.86-1.66-2.03v-.81h5.3v.81Z"/>
  <path class="st0" d="M77.07,28.57c-.15.93-.59,3.1-.78,3.81h-11.36v-.81c1.81-.17,2.03-.29,2.03-2.3v-9.53c0-1.98-.22-2.1-1.76-2.25v-.81h10.53c.02.39.15,2.1.24,3.47l-.83.12c-.24-.88-.49-1.54-.86-1.95-.34-.44-.98-.66-2.44-.66h-.88c-.78,0-.88.07-.88.88v5.13h1.39c1.93,0,2.15-.1,2.52-1.81h.83v4.79h-.83c-.37-1.76-.56-1.83-2.52-1.83h-1.39v4.42c0,1.15.12,1.69.51,1.88.37.22,1.03.27,1.91.27,1.29,0,2-.2,2.52-.78.42-.51.83-1.22,1.22-2.25l.83.2Z"/>
  <path class="st0" d="M91.53,32.62c-.27,0-.56,0-.88-.02-2.81-.12-3.64-.78-4.59-2.35-.59-.95-1.25-2.27-1.86-3.57-.34-.76-.66-1.1-1.39-1.12h-.42v3.64c0,2,.2,2.25,1.83,2.37v.81h-6.77v-.81c1.69-.12,1.88-.37,1.88-2.37v-9.43c0-1.95-.17-2.1-1.78-2.27v-.81h6.55c1.78,0,2.86.24,3.79.85.95.66,1.56,1.71,1.56,3.2,0,2.08-1.22,3.27-2.81,3.96.32.73,1.17,2.39,1.86,3.52.78,1.32,1.25,2.03,1.71,2.56.54.59,1,.95,1.44,1.12l-.12.71ZM83.05,24.61c.93,0,1.51-.17,2.03-.61.71-.59,1.05-1.56,1.05-2.88,0-2.57-1.39-3.49-2.64-3.49-.51,0-.78.1-.93.22-.12.17-.17.37-.17.9v5.86h.66Z"/>
  <path class="st0" d="M92.07,32.38v-.81c1.61-.15,1.81-.37,1.81-2.32v-9.41c0-2-.17-2.2-1.81-2.35v-.81h6.74v.81c-1.64.15-1.81.34-1.81,2.35v9.41c0,1.93.17,2.17,1.81,2.32v.81h-6.74Z"/>
  <path class="st0" d="M115.03,17.45c-1.27.07-1.69.44-1.78,1.32-.1.76-.24,1.98-.24,4.1v9.75h-1.2l-8.67-11.85h-.07v5.35c0,2.03.12,3.3.2,4.03.12.93.51,1.34,2.2,1.44v.78h-5.57v-.78c1.29-.07,1.73-.49,1.86-1.42.07-.76.22-2.03.22-4.06v-5.11c0-1.61-.02-2.05-.42-2.59-.42-.59-.9-.88-1.88-.98v-.76h4.18l7.96,10.46h.1v-4.27c0-2.13-.12-3.35-.22-4.1-.12-.85-.59-1.22-2.15-1.32v-.76h5.5v.76Z"/>
  <path class="st0" d="M128.58,25.61c-1.1.24-1.25.32-1.25,1.81v2.15c0,.88.02,1.64.15,2.32-1.34.34-3.08.81-4.89.81-5.03,0-8.01-3.25-8.01-7.92,0-5.55,4.01-8.4,8.53-8.4,1.69,0,3.18.39,4.01.59.07.85.2,2.1.37,3.79l-.83.17c-.73-2.61-2.17-3.59-3.93-3.59-2.49,0-4.62,2.54-4.62,6.96,0,3.81,1.61,7.43,4.69,7.43.42,0,.78-.07,1.03-.27.29-.2.42-.61.42-1.29v-2.66c0-1.49-.15-1.66-2.37-1.88v-.78h6.72v.78Z"/>
  <path class="st0" d="M76.44,39.07c-3.21.13-4.47,1.26-4.72,3.34-.31,2.08-.5,4.22-.5,9.26v6.74c0,6.24-.82,11.65-3.97,15.31-2.58,2.9-6.49,4.54-10.65,4.54-3.72,0-7.43-.82-10.14-3.21-3.15-2.77-4.47-6.93-4.47-14.24v-15.43c0-5.42-.44-5.92-4.6-6.3v-2.08h17.07v2.08c-3.97.38-4.41.88-4.41,6.3v15.24c0,8.88,2.83,13.42,8.88,13.42s9.26-4.79,9.26-14.99v-7.37c0-4.98-.25-7.37-.5-9.2-.25-2.14-1.45-3.21-5.61-3.4v-2.08h14.36v2.08Z"/>
  <path class="st0" d="M93.64,36.99c4.85,0,7.94.69,10.39,2.33,2.83,1.89,4.54,5.04,4.54,9.26,0,8.19-5.73,12.09-12.35,12.91-.88.12-1.51.12-2.2.12l-3.65-1.01v8.88c0,5.17.38,5.67,5.29,6.11v1.83h-17.89v-1.83c4.22-.44,4.66-.95,4.66-6.11v-24.31c0-5.17-.44-5.67-4.35-6.11v-2.08h15.56ZM90.37,58.22c.82.31,1.76.57,2.96.57,1.83,0,6.61-1.45,6.61-9.95,0-7.37-3.65-9.57-6.93-9.57-1.07,0-1.64.25-2.02.57-.5.31-.63,1.01-.63,2.02v16.38Z"/>
</svg>