<?xml version="1.0" encoding="UTF-8"?>
<svg id="_レイヤー_1" xmlns="http://www.w3.org/2000/svg" version="1.1" viewBox="0 0 146 92">
  <!-- Generator: Adobe Illustrator 29.4.0, SVG Export Plug-In . SVG Version: 2.1.0 Build 152)  -->
  <defs>
    <style>
      .st0 {
        fill: #141414;
      }
    </style>
  </defs>
  <path class="st0" d="M25.3,38.68c-1.68.23-2.17.43-3.24,3.21-.93,2.34-3.33,8.85-5.35,14.7h-1.33c-1.76-5.27-4.22-12.21-5.32-15.22-.78-2.23-1.19-2.52-2.78-2.69v-.95h7.93v.95c-1.82.23-1.91.46-1.53,1.79.58,1.88,2.6,7.58,3.67,10.73h.06c1.04-2.89,2.49-7.09,3.3-9.92.58-1.97.52-2.34-1.59-2.6v-.95h6.19v.95Z"/>
  <path class="st0" d="M25.8,56.3v-.96c1.91-.17,2.14-.43,2.14-2.75v-11.14c0-2.37-.2-2.6-2.14-2.78v-.95h7.98v.95c-1.94.17-2.14.4-2.14,2.78v11.14c0,2.29.2,2.58,2.14,2.75v.96h-7.98Z"/>
  <path class="st0" d="M48.33,51.64c-.2,1.16-.72,3.93-.93,4.66h-12.87v-.96c2.2-.17,2.43-.4,2.43-2.72v-11.17c0-2.4-.2-2.6-2.17-2.78v-.95h8.04v.95c-1.97.17-2.17.38-2.17,2.78v11.23c0,1.39.12,1.97.64,2.23.46.2,1.16.23,1.97.23,1.16,0,2.05-.2,2.69-.96.49-.55.95-1.48,1.42-2.78l.96.23Z"/>
  <path class="st0" d="M62.22,51.64c-.2,1.16-.72,3.93-.93,4.66h-12.87v-.96c2.2-.17,2.43-.4,2.43-2.72v-11.17c0-2.4-.2-2.6-2.17-2.78v-.95h8.04v.95c-1.97.17-2.17.38-2.17,2.78v11.23c0,1.39.12,1.97.64,2.23.46.2,1.16.23,1.97.23,1.16,0,2.05-.2,2.69-.96.49-.55.95-1.48,1.42-2.78l.96.23Z"/>
  <path class="st0" d="M72.15,56.3v-.96c1.53-.2,1.68-.55,1.21-1.97-.26-.87-.61-2.03-.96-2.98h-4.95c-.23.72-.55,1.68-.87,2.81-.43,1.53-.32,1.88,1.62,2.14v.96h-5.99v-.96c1.65-.17,2.08-.49,2.86-2.69l5.44-14.99,1.36-.32c1.71,5.01,3.27,9.95,5.03,14.93.9,2.58,1.24,2.89,2.83,3.07v.96h-7.61ZM70,42.64h-.09c-.75,2.14-1.33,4.2-2.03,6.28h4.05l-1.94-6.28Z"/>
  <path class="st0" d="M94.19,48.29c-1.3.29-1.48.38-1.48,2.14v2.55c0,1.04.03,1.94.17,2.75-1.59.4-3.65.95-5.79.95-5.96,0-9.49-3.85-9.49-9.37,0-6.57,4.74-9.95,10.1-9.95,2,0,3.76.46,4.74.69.09,1.01.23,2.49.43,4.48l-.98.2c-.87-3.1-2.57-4.25-4.66-4.25-2.95,0-5.47,3.01-5.47,8.25,0,4.51,1.91,8.8,5.55,8.8.49,0,.93-.09,1.21-.32.35-.23.49-.72.49-1.53v-3.15c0-1.76-.17-1.97-2.81-2.23v-.93h7.96v.93Z"/>
  <path class="st0" d="M108.48,51.79c-.17,1.1-.69,3.67-.93,4.51h-13.45v-.96c2.14-.2,2.4-.35,2.4-2.72v-11.28c0-2.34-.26-2.49-2.08-2.66v-.95h12.47c.03.46.17,2.49.29,4.11l-.98.14c-.29-1.04-.58-1.82-1.01-2.31-.41-.52-1.16-.78-2.89-.78h-1.04c-.93,0-1.04.09-1.04,1.04v6.08h1.65c2.29,0,2.55-.12,2.98-2.14h.98v5.67h-.98c-.43-2.08-.67-2.17-2.98-2.17h-1.65v5.24c0,1.36.14,2,.61,2.23.43.26,1.22.32,2.26.32,1.53,0,2.37-.23,2.98-.93.49-.61.98-1.45,1.45-2.66l.98.23Z"/>
  <path class="st0" d="M124.92,56.59c-.32,0-.67,0-1.04-.03-3.33-.15-4.31-.93-5.44-2.78-.69-1.13-1.48-2.69-2.2-4.22-.4-.9-.78-1.3-1.65-1.33h-.49v4.31c0,2.37.23,2.66,2.17,2.81v.96h-8.01v-.96c2-.14,2.23-.43,2.23-2.81v-11.17c0-2.31-.2-2.49-2.11-2.69v-.95h7.75c2.11,0,3.38.29,4.48,1.01,1.13.78,1.85,2.03,1.85,3.79,0,2.46-1.45,3.88-3.33,4.69.38.87,1.39,2.83,2.2,4.17.93,1.56,1.48,2.4,2.03,3.04.64.69,1.19,1.13,1.71,1.33l-.14.84ZM114.88,47.1c1.1,0,1.79-.2,2.4-.72.84-.69,1.24-1.85,1.24-3.41,0-3.04-1.65-4.14-3.12-4.14-.61,0-.93.12-1.1.26-.14.2-.2.43-.2,1.07v6.94h.78Z"/>
  <path class="st0" d="M135.19,42.27c-.61-1.79-1.48-3.82-3.67-3.82-1.36,0-2.49,1.13-2.49,2.81s1.01,2.55,3.24,3.82c2.78,1.5,4.74,3.1,4.74,5.96,0,3.15-2.55,5.64-6.6,5.64-.96,0-1.82-.14-2.6-.35-.75-.23-1.27-.43-1.71-.61-.26-.78-.58-2.95-.78-4.63l.98-.32c.55,1.76,2,4.77,4.63,4.77,1.62,0,2.66-1.19,2.66-2.92s-1.1-2.78-3.15-3.96c-2.58-1.48-4.69-3.1-4.69-5.87,0-3.01,2.2-5.44,6.19-5.44,1.53,0,2.95.43,3.67.69.09,1.1.29,2.34.55,4.05l-.98.17Z"/>
</svg>