<?xml version="1.0" encoding="UTF-8"?>
<svg id="_レイヤー_1" xmlns="http://www.w3.org/2000/svg" version="1.1" viewBox="0 0 146 92">
  <!-- Generator: Adobe Illustrator 29.4.0, SVG Export Plug-In . SVG Version: 2.1.0 Build 152)  -->
  <defs>
    <style>
      .st0 {
        fill: #141414;
      }
    </style>
  </defs>
  <path class="st0" d="M27.7,27.59c0,4.73-2.83,7.6-6.53,7.6-3.9,0-6.44-3.19-6.44-7.45,0-3.66,2.13-7.54,6.64-7.54,3.61,0,6.33,2.94,6.33,7.38ZM17.98,27.27c0,3.81,1.17,7.04,3.54,7.04,1.7,0,2.89-2.11,2.89-6.15,0-4.35-1.21-7.09-3.34-7.09-1.91,0-3.1,2.62-3.1,6.19Z"/>
  <path class="st0" d="M40.73,21.24c-1.3.18-1.68.34-2.51,2.49-.72,1.82-2.58,6.86-4.15,11.39h-1.03c-1.37-4.08-3.27-9.47-4.13-11.8-.61-1.73-.92-1.95-2.15-2.09v-.74h6.15v.74c-1.41.18-1.48.36-1.19,1.39.45,1.46,2.02,5.88,2.85,8.32h.04c.81-2.24,1.93-5.5,2.56-7.69.45-1.52.4-1.82-1.23-2.02v-.74h4.8v.74Z"/>
  <path class="st0" d="M51.58,31.4c-.13.85-.54,2.85-.72,3.5h-10.43v-.74c1.66-.16,1.86-.27,1.86-2.11v-8.75c0-1.82-.2-1.93-1.61-2.06v-.74h9.67c.02.36.13,1.93.22,3.19l-.76.11c-.22-.81-.45-1.41-.79-1.79-.31-.4-.9-.61-2.24-.61h-.81c-.72,0-.81.07-.81.81v4.71h1.28c1.77,0,1.97-.09,2.31-1.66h.76v4.4h-.76c-.34-1.62-.52-1.68-2.31-1.68h-1.28v4.06c0,1.05.11,1.55.47,1.73.34.2.94.25,1.75.25,1.19,0,1.84-.18,2.31-.72.38-.47.76-1.12,1.12-2.06l.76.18Z"/>
  <path class="st0" d="M64.85,35.12c-.25,0-.52,0-.81-.02-2.58-.11-3.34-.72-4.22-2.15-.54-.87-1.14-2.09-1.7-3.27-.31-.7-.61-1.01-1.28-1.03h-.38v3.34c0,1.84.18,2.06,1.68,2.18v.74h-6.21v-.74c1.55-.11,1.73-.34,1.73-2.18v-8.66c0-1.79-.16-1.93-1.64-2.09v-.74h6.01c1.64,0,2.62.22,3.48.79.88.61,1.44,1.57,1.44,2.94,0,1.91-1.12,3.01-2.58,3.63.29.67,1.08,2.2,1.7,3.23.72,1.21,1.14,1.86,1.57,2.35.49.54.92.88,1.32,1.03l-.11.65ZM57.07,27.77c.85,0,1.39-.16,1.86-.56.65-.54.96-1.44.96-2.65,0-2.36-1.28-3.21-2.42-3.21-.47,0-.72.09-.85.2-.11.16-.16.34-.16.83v5.38h.61Z"/>
  <path class="st0" d="M82.46,21.24c-1.35.18-1.68.43-2.24,2.27-.47,1.53-1.68,5.38-3.39,11.62h-1.08c-1.05-3.25-2.13-6.26-3.23-9.58h-.04c-1.01,3.21-2,6.46-2.92,9.58h-1.08c-1.1-3.97-2.15-7.74-3.27-11.78-.49-1.77-.85-1.97-2.02-2.11v-.74h6.15v.74c-1.5.18-1.57.38-1.28,1.55.63,2.56,1.3,5.11,1.95,7.56h.04c.96-3.16,1.91-6.44,2.83-9.71h1.03c1.05,3.27,2.2,6.53,3.25,9.8h.07c.7-2.58,1.62-5.88,1.88-7.33.25-1.39.2-1.7-1.53-1.86v-.74h4.87v.74Z"/>
  <path class="st0" d="M93.9,27.59c0,4.73-2.83,7.6-6.53,7.6-3.9,0-6.44-3.19-6.44-7.45,0-3.66,2.13-7.54,6.64-7.54,3.61,0,6.33,2.94,6.33,7.38ZM84.18,27.27c0,3.81,1.17,7.04,3.54,7.04,1.71,0,2.89-2.11,2.89-6.15,0-4.35-1.21-7.09-3.34-7.09-1.91,0-3.1,2.62-3.1,6.19Z"/>
  <path class="st0" d="M106.72,35.12c-.25,0-.52,0-.81-.02-2.58-.11-3.34-.72-4.22-2.15-.54-.87-1.14-2.09-1.71-3.27-.31-.7-.61-1.01-1.28-1.03h-.38v3.34c0,1.84.18,2.06,1.68,2.18v.74h-6.21v-.74c1.55-.11,1.73-.34,1.73-2.18v-8.66c0-1.79-.16-1.93-1.64-2.09v-.74h6.01c1.64,0,2.62.22,3.48.79.87.61,1.44,1.57,1.44,2.94,0,1.91-1.12,3.01-2.58,3.63.29.67,1.08,2.2,1.71,3.23.72,1.21,1.14,1.86,1.57,2.35.49.54.92.88,1.32,1.03l-.11.65ZM98.94,27.77c.85,0,1.39-.16,1.86-.56.65-.54.96-1.44.96-2.65,0-2.36-1.28-3.21-2.42-3.21-.47,0-.72.09-.85.2-.11.16-.16.34-.16.83v5.38h.61Z"/>
  <path class="st0" d="M117.69,31.29c-.16.9-.56,3.05-.72,3.61h-9.98v-.74c1.71-.13,1.88-.31,1.88-2.11v-8.66c0-1.86-.16-2.02-1.68-2.15v-.74h6.24v.74c-1.53.13-1.68.29-1.68,2.15v8.7c0,1.08.09,1.53.49,1.73.36.16.9.18,1.53.18.9,0,1.59-.16,2.09-.74.38-.43.74-1.14,1.1-2.15l.74.18Z"/>
  <path class="st0" d="M123.74,20.5c2.65,0,4.58.56,5.85,1.95.96,1.05,1.7,2.65,1.7,4.69,0,2.76-.94,4.67-2.42,5.92-1.48,1.28-3.52,1.84-6.03,1.84h-5.02v-.74c1.59-.11,1.79-.31,1.79-2.2v-8.52c0-1.91-.18-2.06-1.66-2.2v-.74h5.79ZM122.49,31.96c0,1.5.36,2.02,1.5,2.02,2.22,0,4.1-2.13,4.1-6.44,0-2.27-.56-3.93-1.41-4.89-.81-.9-1.82-1.28-2.96-1.28-.56,0-.88.11-1.03.22-.16.13-.2.45-.2,1.14v9.22Z"/>
  <path class="st0" d="M53.19,38.81c-4.21.37-4.7.73-4.7,5.67v23.72c0,4.88.55,5.31,4.57,5.73v2.01h-17.02v-2.01c4.15-.37,4.7-.85,4.7-5.67v-11.59h-13.66v11.59c0,4.94.49,5.31,4.45,5.67v2.01H14.64v-2.01c4.09-.37,4.64-.79,4.64-5.67v-23.79c0-4.94-.55-5.31-4.82-5.67v-2.01h16.96v2.01c-3.84.37-4.33.73-4.33,5.67v9.15h13.66v-9.15c0-4.94-.55-5.31-4.45-5.67v-2.01h16.89v2.01Z"/>
  <path class="st0" d="M93.51,38.81c-3.11.12-4.33,1.22-4.57,3.23-.31,2.01-.49,4.09-.49,8.97v6.53c0,6.04-.79,11.28-3.84,14.82-2.5,2.81-6.28,4.39-10.31,4.39-3.6,0-7.2-.79-9.82-3.11-3.05-2.68-4.33-6.71-4.33-13.78v-14.94c0-5.25-.43-5.73-4.45-6.1v-2.01h16.53v2.01c-3.84.37-4.27.85-4.27,6.1v14.76c0,8.6,2.74,12.99,8.6,12.99s8.96-4.64,8.96-14.52v-7.14c0-4.82-.24-7.14-.49-8.9-.24-2.07-1.4-3.11-5.43-3.29v-2.01h13.91v2.01Z"/>
  <path class="st0" d="M110.52,36.8c7.2,0,12.44,1.52,15.92,5.31,2.62,2.87,4.63,7.2,4.63,12.75,0,7.5-2.56,12.69-6.59,16.1-4.03,3.48-9.58,5-16.41,5h-13.66v-2.01c4.33-.3,4.88-.85,4.88-5.98v-23.18c0-5.18-.49-5.61-4.51-5.98v-2.01h15.74ZM107.11,67.96c0,4.09.98,5.49,4.09,5.49,6.04,0,11.16-5.79,11.16-17.5,0-6.16-1.53-10.67-3.84-13.3-2.2-2.44-4.94-3.48-8.05-3.48-1.52,0-2.38.3-2.81.61-.43.37-.55,1.22-.55,3.11v25.07Z"/>
</svg>