<?xml version="1.0" encoding="UTF-8"?>
<svg id="_レイヤー_1" xmlns="http://www.w3.org/2000/svg" version="1.1" viewBox="0 0 146 92">
  <!-- Generator: Adobe Illustrator 29.4.0, SVG Export Plug-In . SVG Version: 2.1.0 Build 152)  -->
  <defs>
    <style>
      .st0 {
        fill: #141414;
      }
    </style>
  </defs>
  <path class="st0" d="M18.83,51.41c-.14.87-.55,2.91-.73,3.58H7.43v-.76c1.7-.16,1.9-.28,1.9-2.16v-8.94c0-1.86-.21-1.97-1.65-2.11v-.76h9.88c.02.37.14,1.97.23,3.26l-.78.11c-.23-.83-.46-1.44-.8-1.83-.32-.41-.92-.62-2.29-.62h-.83c-.73,0-.83.07-.83.83v4.82h1.31c1.81,0,2.02-.09,2.36-1.7h.78v4.5h-.78c-.34-1.65-.53-1.72-2.36-1.72h-1.31v4.15c0,1.08.11,1.58.48,1.77.34.21.96.25,1.79.25,1.22,0,1.88-.18,2.36-.73.39-.48.78-1.15,1.15-2.11l.78.18Z"/>
  <path class="st0" d="M26.3,54.99v-.76c1.26-.21,1.28-.46.87-1.31-.21-.44-.69-1.33-2.09-4.06-.92,1.58-1.79,3.14-2.18,4.06-.39.92-.18,1.1,1.15,1.31v.76h-5.21v-.76c1.15-.16,1.81-.41,2.43-1.22.73-1.01,2.13-3.12,3.26-5.09-.99-1.83-1.81-3.42-2.82-5.25-.69-1.24-1.12-1.49-2.55-1.65v-.76h6.33v.76c-1.17.16-1.22.41-.96.94.41.85,1.06,2.16,1.86,3.58.6-.94,1.35-2.36,1.77-3.21.41-.87.34-1.1-1.05-1.31v-.76h5.05v.76c-1.38.16-1.93.39-2.78,1.56-.69.96-1.47,2.18-2.48,3.81,1.24,2.2,2.18,3.97,3.35,5.94.8,1.42,1.28,1.77,2.75,1.9v.76h-6.7Z"/>
  <path class="st0" d="M38.85,40.26c1.77,0,2.89.25,3.78.85,1.03.69,1.65,1.83,1.65,3.37,0,2.98-2.09,4.4-4.5,4.7-.32.05-.55.05-.8.05l-1.33-.37v3.23c0,1.88.14,2.06,1.93,2.22v.67h-6.51v-.67c1.54-.16,1.7-.34,1.7-2.22v-8.85c0-1.88-.16-2.06-1.58-2.22v-.76h5.66ZM37.66,47.99c.3.12.64.21,1.08.21.67,0,2.41-.53,2.41-3.62,0-2.68-1.33-3.49-2.52-3.49-.39,0-.6.09-.73.21-.18.11-.23.37-.23.73v5.96Z"/>
  <path class="st0" d="M55.06,51.29c-.16.92-.57,3.12-.73,3.69h-10.21v-.76c1.74-.14,1.93-.32,1.93-2.16v-8.85c0-1.9-.16-2.06-1.72-2.2v-.76h6.38v.76c-1.56.14-1.72.3-1.72,2.2v8.9c0,1.1.09,1.56.5,1.77.37.16.92.18,1.56.18.92,0,1.63-.16,2.13-.76.39-.44.76-1.17,1.12-2.2l.76.18Z"/>
  <path class="st0" d="M68.36,47.51c0,4.84-2.89,7.77-6.67,7.77-3.99,0-6.58-3.26-6.58-7.61,0-3.74,2.18-7.71,6.79-7.71,3.69,0,6.47,3,6.47,7.54ZM58.43,47.19c0,3.9,1.19,7.2,3.62,7.2,1.74,0,2.96-2.16,2.96-6.28,0-4.45-1.24-7.25-3.42-7.25-1.95,0-3.17,2.68-3.17,6.33Z"/>
  <path class="st0" d="M81.48,55.22c-.25,0-.53,0-.83-.02-2.64-.11-3.42-.73-4.31-2.2-.55-.89-1.17-2.13-1.74-3.35-.32-.71-.62-1.03-1.31-1.05h-.39v3.42c0,1.88.18,2.11,1.72,2.22v.76h-6.35v-.76c1.58-.11,1.77-.34,1.77-2.22v-8.85c0-1.83-.16-1.97-1.67-2.13v-.76h6.15c1.67,0,2.68.23,3.55.8.89.62,1.47,1.61,1.47,3,0,1.95-1.15,3.07-2.64,3.72.3.69,1.1,2.25,1.74,3.3.73,1.24,1.17,1.9,1.61,2.41.5.55.94.89,1.35,1.05l-.12.67ZM73.52,47.69c.87,0,1.42-.16,1.9-.57.67-.55.99-1.47.99-2.71,0-2.41-1.31-3.28-2.48-3.28-.48,0-.73.09-.87.21-.11.16-.16.34-.16.85v5.5h.62Z"/>
  <path class="st0" d="M89.14,54.99v-.76c1.22-.16,1.33-.44.96-1.56-.21-.69-.48-1.61-.76-2.36h-3.92c-.18.57-.44,1.33-.69,2.22-.34,1.22-.25,1.49,1.29,1.7v.76h-4.75v-.76c1.31-.14,1.65-.39,2.27-2.13l4.31-11.88,1.08-.25c1.35,3.97,2.59,7.89,3.99,11.83.71,2.04.99,2.29,2.25,2.43v.76h-6.03ZM87.44,44.16h-.07c-.6,1.7-1.05,3.33-1.61,4.98h3.21l-1.54-4.98Z"/>
  <path class="st0" d="M104.46,43.91c-.28-1.15-.5-1.83-.85-2.22-.37-.39-.94-.5-1.86-.5h-1.03v10.85c0,1.88.18,2.06,1.97,2.2v.76h-6.79v-.76c1.72-.14,1.9-.32,1.9-2.2v-10.85h-.83c-1.26,0-1.74.16-2.09.6-.32.39-.55,1.15-.8,2.16h-.78c.09-1.51.23-3.1.25-4.24h.55c.34.46.6.57,1.21.57h7.94c.53,0,.83-.14,1.17-.57h.55c.02.94.14,2.78.23,4.17l-.76.05Z"/>
  <path class="st0" d="M105.79,54.99v-.76c1.51-.14,1.7-.34,1.7-2.18v-8.83c0-1.88-.16-2.06-1.7-2.2v-.76h6.33v.76c-1.54.14-1.7.32-1.7,2.2v8.83c0,1.81.16,2.04,1.7,2.18v.76h-6.33Z"/>
  <path class="st0" d="M125.21,47.51c0,4.84-2.89,7.77-6.67,7.77-3.99,0-6.58-3.26-6.58-7.61,0-3.74,2.18-7.71,6.79-7.71,3.69,0,6.47,3,6.47,7.54ZM115.28,47.19c0,3.9,1.19,7.2,3.62,7.2,1.74,0,2.96-2.16,2.96-6.28,0-4.45-1.24-7.25-3.42-7.25-1.95,0-3.16,2.68-3.16,6.33Z"/>
  <path class="st0" d="M138.92,40.97c-1.19.07-1.58.41-1.67,1.24-.09.71-.23,1.86-.23,3.85v9.15h-1.12l-8.14-11.12h-.07v5.02c0,1.9.11,3.1.18,3.78.12.87.48,1.26,2.06,1.35v.73h-5.23v-.73c1.21-.07,1.63-.46,1.74-1.33.07-.71.21-1.9.21-3.81v-4.79c0-1.51-.02-1.93-.39-2.43-.39-.55-.85-.83-1.77-.92v-.71h3.92l7.48,9.82h.09v-4.01c0-2-.11-3.14-.21-3.85-.12-.8-.55-1.15-2.02-1.24v-.71h5.16v.71Z"/>
</svg>