<?xml version="1.0" encoding="UTF-8"?>
<svg id="_レイヤー_1" xmlns="http://www.w3.org/2000/svg" version="1.1" viewBox="0 0 146 92">
  <!-- Generator: Adobe Illustrator 29.4.0, SVG Export Plug-In . SVG Version: 2.1.0 Build 152)  -->
  <defs>
    <style>
      .st0 {
        fill: #141414;
      }
    </style>
  </defs>
  <path class="st0" d="M25.64,44.74c4.26.57,7.25,2.58,7.25,6.35,0,2.87-1.47,4.87-3.56,6.1-2.05,1.23-5.04,1.76-8.19,1.76h-9.5v-1.35c2.95-.25,3.23-.61,3.23-3.97v-15.68c0-3.32-.25-3.68-3.03-3.93v-1.35h10.97c3.03,0,4.91.41,6.43,1.43,1.35.94,2.25,2.54,2.25,4.5,0,3.73-3.07,5.44-5.85,5.98v.16ZM20.93,44.25c3.56,0,5.08-1.51,5.08-4.95,0-3.68-2.05-5.08-4.05-5.08-.86,0-1.31.21-1.56.45-.29.25-.41.86-.41,1.88v7.7h.94ZM19.99,53.62c0,2.83.66,3.68,2.62,3.68,2.13-.04,4.5-1.68,4.5-5.85,0-3.77-2.21-5.65-6.3-5.65h-.82v7.82Z"/>
  <path class="st0" d="M45.16,58.95v-1.35c2.17-.29,2.37-.78,1.72-2.78-.37-1.23-.86-2.87-1.35-4.22h-7c-.33,1.02-.78,2.37-1.23,3.97-.61,2.17-.45,2.66,2.29,3.03v1.35h-8.47v-1.35c2.33-.25,2.95-.7,4.05-3.81l7.7-21.21,1.92-.45c2.42,7.08,4.63,14.08,7.12,21.12,1.27,3.64,1.76,4.09,4.01,4.34v1.35h-10.77ZM42.14,39.62h-.12c-1.06,3.03-1.88,5.94-2.87,8.88h5.73l-2.74-8.88Z"/>
  <path class="st0" d="M72.3,39.17c-.49-2.05-.9-3.27-1.52-3.97-.65-.7-1.68-.9-3.32-.9h-1.84v19.36c0,3.36.33,3.68,3.52,3.93v1.35h-12.12v-1.35c3.07-.25,3.4-.57,3.4-3.93v-19.36h-1.47c-2.25,0-3.11.29-3.73,1.06-.57.7-.98,2.05-1.43,3.85h-1.39c.16-2.7.41-5.53.45-7.57h.98c.61.82,1.06,1.02,2.17,1.02h14.17c.94,0,1.47-.25,2.09-1.02h.98c.04,1.68.25,4.95.41,7.45l-1.35.08Z"/>
  <path class="st0" d="M94.12,39.17c-.49-2.05-.9-3.27-1.51-3.97-.66-.7-1.68-.9-3.32-.9h-1.84v19.36c0,3.36.33,3.68,3.52,3.93v1.35h-12.12v-1.35c3.07-.25,3.4-.57,3.4-3.93v-19.36h-1.47c-2.25,0-3.11.29-3.73,1.06-.57.7-.98,2.05-1.43,3.85h-1.39c.16-2.7.41-5.53.45-7.57h.98c.61.82,1.06,1.02,2.17,1.02h14.17c.94,0,1.47-.25,2.09-1.02h.98c.04,1.68.25,4.95.41,7.45l-1.35.08Z"/>
  <path class="st0" d="M115.2,52.36c-.29,1.64-1.02,5.57-1.31,6.59h-18.22v-1.35c3.11-.25,3.44-.57,3.44-3.85v-15.8c0-3.4-.29-3.68-3.07-3.93v-1.35h11.38v1.35c-2.78.25-3.07.53-3.07,3.93v15.88c0,1.96.16,2.78.9,3.15.66.29,1.64.33,2.78.33,1.64,0,2.91-.29,3.81-1.35.7-.78,1.35-2.09,2.01-3.93l1.35.33Z"/>
  <path class="st0" d="M135.26,52.56c-.25,1.56-.98,5.2-1.31,6.39h-19.04v-1.35c3.03-.29,3.4-.49,3.4-3.85v-15.97c0-3.32-.37-3.52-2.95-3.77v-1.35h17.64c.04.66.25,3.52.41,5.81l-1.39.2c-.41-1.47-.82-2.58-1.43-3.27-.57-.74-1.64-1.11-4.09-1.11h-1.47c-1.31,0-1.47.12-1.47,1.47v8.6h2.33c3.23,0,3.6-.16,4.22-3.03h1.39v8.02h-1.39c-.61-2.95-.94-3.07-4.22-3.07h-2.33v7.41c0,1.92.21,2.83.86,3.15.61.37,1.72.45,3.19.45,2.17,0,3.36-.33,4.22-1.31.7-.86,1.39-2.05,2.05-3.77l1.39.33Z"/>
</svg>